<svg width="244" height="87" viewBox="0 0 244 87" fill="none" xmlns="http://www.w3.org/2000/svg">
<path d="M34.1 83C34.6667 82.9333 35.15 83.1 35.55 83.5C35.9833 83.9 36.2 84.3833 36.2 84.95C36.2 85.5167 35.9833 85.9833 35.55 86.35C35.15 86.75 34.6667 86.9333 34.1 86.9C33.9667 86.8667 33.4167 86.8 32.45 86.7C31.5167 86.6 30.6167 86.55 29.75 86.55C28.45 86.55 27.4333 86 26.7 84.9L18.3 72.1C18.2 71.9 18.0167 71.8 17.75 71.8H11.3C11 71.8 10.85 71.95 10.85 72.25V82.8C10.85 83.1 11 83.25 11.3 83.25C11.7667 83.1833 12.2167 83.1333 12.65 83.1C13.1167 83.0667 13.5667 83.0333 14 83C14.5667 82.9333 15.05 83.1 15.45 83.5C15.85 83.9 16.05 84.3833 16.05 84.95C16.05 85.5167 15.85 85.9833 15.45 86.35C15.05 86.75 14.5667 86.9333 14 86.9C13.0333 86.8 12.1833 86.7167 11.45 86.65C10.75 86.6167 10.0667 86.6 9.4 86.6C8.73333 86.6 8.03333 86.6167 7.3 86.65C6.6 86.7167 5.76667 86.8 4.8 86.9C4.23333 86.9333 3.73333 86.75 3.3 86.35C2.9 85.9833 2.7 85.5167 2.7 84.95C2.7 84.3833 2.88333 83.9167 3.25 83.55C3.65 83.1833 4.11667 83 4.65 83C4.91667 83 5.2 83.0167 5.5 83.05C5.83333 83.0833 6.16667 83.1167 6.5 83.15H6.6C6.83333 83.15 6.95 83.0167 6.95 82.75V53.75C6.95 53.4833 6.83333 53.35 6.6 53.35C6.26667 53.35 5.93333 53.3833 5.6 53.45C5.3 53.5167 4.98333 53.55 4.65 53.55C4.11667 53.55 3.65 53.35 3.25 52.95C2.88333 52.55 2.7 52.0833 2.7 51.55C2.7 50.9167 2.91667 50.4 3.35 50C3.81667 49.6 4.35 49.4333 4.95 49.5C5.61667 49.6 6.31667 49.7 7.05 49.8C7.78333 49.8667 8.48333 49.9 9.15 49.9L18.3 49.95C22.5667 49.9833 25.9 50.95 28.3 52.85C30.7 54.7167 31.9 57.3833 31.9 60.85C31.9 63.85 31.0667 66.2 29.4 67.9C27.7667 69.6 25.6333 70.75 23 71.35C22.6333 71.4167 22.55 71.6 22.75 71.9L30 83C30.1 83.2 30.3 83.3 30.6 83.3C31.1667 83.2667 31.75 83.2333 32.35 83.2C32.9833 83.1333 33.5667 83.0667 34.1 83ZM18.85 53.65H11.3C11 53.65 10.85 53.8 10.85 54.1V67.55C10.85 67.85 11 68 11.3 68H18.85C21.7833 68 24.0667 67.45 25.7 66.35C27.3667 65.2167 28.2 63.3833 28.2 60.85C28.2 59.0167 27.7667 57.5833 26.9 56.55C26.0667 55.4833 24.9333 54.7333 23.5 54.3C22.1 53.8667 20.55 53.65 18.85 53.65ZM59.8434 75.3H42.3434C42.01 75.3 41.8767 75.4667 41.9434 75.8C42.2434 77.2667 42.8267 78.5667 43.6934 79.7C44.56 80.8333 45.6267 81.7167 46.8934 82.35C48.16 82.9833 49.5267 83.3 50.9934 83.3C52.26 83.3 53.46 83.0333 54.5934 82.5C55.76 81.9333 56.76 81.1833 57.5934 80.25C58.0934 79.75 58.6267 79.5 59.1934 79.5C59.56 79.5 59.91 79.6167 60.2434 79.85C60.7767 80.2167 61.0434 80.7167 61.0434 81.35C61.0434 81.7833 60.91 82.1333 60.6434 82.4C59.4434 83.8 57.9934 84.9 56.2934 85.7C54.6267 86.4667 52.86 86.85 50.9934 86.85C48.5934 86.85 46.41 86.25 44.4434 85.05C42.51 83.85 40.96 82.25 39.7934 80.25C38.66 78.25 38.0934 76.05 38.0934 73.65C38.0934 71.2167 38.6267 69 39.6934 67C40.76 65 42.2267 63.4 44.0934 62.2C45.9934 61 48.1267 60.4 50.4934 60.4C52.8267 60.4 54.86 60.9 56.5934 61.9C58.3267 62.9 59.71 64.3 60.7434 66.1C61.81 67.8667 62.46 69.9333 62.6934 72.3C62.7934 73.1333 62.5434 73.85 61.9434 74.45C61.3767 75.0167 60.6767 75.3 59.8434 75.3ZM50.4934 63.75C48.16 63.75 46.2434 64.4333 44.7434 65.8C43.2434 67.1667 42.31 68.9667 41.9434 71.2C41.9434 71.2333 41.9267 71.2667 41.8934 71.3C41.8934 71.3 41.8934 71.3167 41.8934 71.35C41.8934 71.5833 42.0434 71.7 42.3434 71.7H58.3934C58.76 71.7 58.8934 71.5333 58.7934 71.2C58.3934 68.8667 57.51 67.05 56.1434 65.75C54.81 64.4167 52.9267 63.75 50.4934 63.75ZM90.3879 79.8C90.7879 80.2333 90.9879 80.7333 90.9879 81.3C90.9879 81.8333 90.8212 82.2667 90.4879 82.6C89.2546 83.9333 87.7879 84.9833 86.0879 85.75C84.3879 86.4833 82.6379 86.85 80.8379 86.85C78.7046 86.85 76.8046 86.4833 75.1379 85.75C73.4712 84.9833 72.0546 83.9667 70.8879 82.7C69.7212 81.4 68.8379 79.9667 68.2379 78.4C67.6379 76.8333 67.3379 75.25 67.3379 73.65C67.3379 71.1833 67.8879 68.95 68.9879 66.95C70.1212 64.95 71.6546 63.3667 73.5879 62.2C75.5212 61 77.7212 60.4 80.1879 60.4C84.0879 60.4 87.1379 61.7333 89.3379 64.4C89.8046 64.9333 90.2046 65.55 90.5379 66.25C90.9046 66.9167 91.0879 67.5833 91.0879 68.25C91.0879 68.8833 90.9546 69.4167 90.6879 69.85C90.4546 70.2833 90.1212 70.6333 89.6879 70.9C89.2546 71.1667 88.7546 71.3 88.1879 71.3C87.3879 71.3 86.7046 71.0167 86.1379 70.45C85.6046 69.85 85.3379 69.15 85.3379 68.35C85.3379 68.05 85.3879 67.7667 85.4879 67.5C85.6212 67.2 85.7546 66.95 85.8879 66.75C86.0546 66.5167 86.0546 66.3 85.8879 66.1C85.2879 65.3333 84.4879 64.7667 83.4879 64.4C82.4879 64.0333 81.3879 63.85 80.1879 63.85C78.3879 63.85 76.8046 64.2833 75.4379 65.15C74.0712 66.0167 73.0046 67.1833 72.2379 68.65C71.4712 70.1167 71.0879 71.7833 71.0879 73.65C71.0879 75.3833 71.4879 76.9833 72.2879 78.45C73.1212 79.8833 74.2546 81.05 75.6879 81.95C77.1212 82.8167 78.7879 83.25 80.6879 83.25C82.1546 83.25 83.5046 82.9333 84.7379 82.3C85.9712 81.6667 87.0546 80.85 87.9879 79.85C88.3546 79.4833 88.7712 79.3 89.2379 79.3C89.7046 79.3 90.0879 79.4667 90.3879 79.8ZM105.964 83.4C106.431 83.4 106.831 83.5667 107.164 83.9C107.497 84.2333 107.664 84.65 107.664 85.15C107.664 85.65 107.481 86.0667 107.114 86.4C106.747 86.7667 106.297 86.9333 105.764 86.9C104.731 86.8 103.897 86.7167 103.264 86.65C102.631 86.6167 102.014 86.6 101.414 86.6C100.714 86.6 100.047 86.6167 99.4141 86.65C98.8141 86.7167 98.0307 86.8 97.0641 86.9C96.5307 86.9333 96.0807 86.7667 95.7141 86.4C95.3474 86.0667 95.1641 85.65 95.1641 85.15C95.1641 84.65 95.3307 84.2333 95.6641 83.9C95.9974 83.5667 96.3974 83.4 96.8641 83.4C97.1974 83.4 97.5474 83.4167 97.9141 83.45C98.3141 83.4833 98.6974 83.5167 99.0641 83.55H99.1641C99.3974 83.55 99.5141 83.4167 99.5141 83.15V52.9C99.5141 52.6333 99.3974 52.5 99.1641 52.5C98.7641 52.5 98.3641 52.5333 97.9641 52.6C97.5974 52.6333 97.2307 52.65 96.8641 52.65C96.3974 52.65 95.9974 52.4833 95.6641 52.15C95.3307 51.8167 95.1641 51.4167 95.1641 50.95C95.1641 50.4167 95.3474 49.9833 95.7141 49.65C96.0807 49.2833 96.5307 49.1333 97.0641 49.2C97.5641 49.2333 98.0974 49.2833 98.6641 49.35C99.2307 49.3833 99.7807 49.4167 100.314 49.45C101.114 49.4833 101.814 49.7833 102.414 50.35C103.014 50.9167 103.314 51.6167 103.314 52.45V83.15C103.314 83.4167 103.447 83.55 103.714 83.55C104.114 83.55 104.497 83.5333 104.864 83.5C105.264 83.4333 105.631 83.4 105.964 83.4ZM134.968 83.05C135.468 83.05 135.885 83.25 136.218 83.65C136.585 84.0167 136.768 84.45 136.768 84.95C136.768 85.55 136.551 86.0333 136.118 86.4C135.685 86.8 135.185 86.95 134.618 86.85C134.185 86.75 133.718 86.6667 133.218 86.6C132.718 86.5333 132.218 86.4833 131.718 86.45C131.051 86.45 130.451 86.25 129.918 85.85C129.385 85.45 129.018 84.9333 128.818 84.3C128.718 84 128.551 83.95 128.318 84.15C127.185 85.0167 125.951 85.6833 124.618 86.15C123.285 86.6167 121.701 86.85 119.868 86.85C117.668 86.85 115.835 86.2167 114.368 84.95C112.901 83.65 112.168 81.9667 112.168 79.9C112.168 77.5333 113.001 75.6 114.668 74.1C116.335 72.6 118.535 71.85 121.268 71.85C122.301 71.85 123.401 71.9667 124.568 72.2C125.735 72.4333 126.935 72.8 128.168 73.3C128.201 73.3 128.235 73.3167 128.268 73.35C128.301 73.35 128.335 73.35 128.368 73.35C128.601 73.35 128.718 73.2167 128.718 72.95V70.95C128.718 68.5833 128.085 66.8167 126.818 65.65C125.585 64.4833 124.135 63.9 122.468 63.9C121.368 63.9 120.235 64.15 119.068 64.65C118.835 64.7833 118.751 64.9833 118.818 65.25C118.918 65.55 118.968 65.8333 118.968 66.1C118.968 66.8333 118.701 67.5 118.168 68.1C117.668 68.7 116.985 69 116.118 69C115.218 69 114.501 68.7 113.968 68.1C113.468 67.4667 113.218 66.75 113.218 65.95C113.218 65.1167 113.518 64.35 114.118 63.65C115.018 62.6167 116.135 61.8167 117.468 61.25C118.835 60.6833 120.285 60.4 121.818 60.4C124.418 60.4 126.485 60.8833 128.018 61.85C129.585 62.8167 130.701 64.1 131.368 65.7C132.068 67.3 132.418 69.05 132.418 70.95V83C132.418 83.2667 132.551 83.4 132.818 83.4C133.185 83.4 133.551 83.35 133.918 83.25C134.285 83.1167 134.635 83.05 134.968 83.05ZM119.868 83.25C121.801 83.1833 123.418 82.8667 124.718 82.3C126.018 81.7333 127.285 80.8167 128.518 79.55C128.651 79.3833 128.718 79.2 128.718 79V77.6C128.718 77.3667 128.618 77.2 128.418 77.1C127.718 76.7 126.835 76.3 125.768 75.9C124.701 75.5 123.268 75.3 121.468 75.3C119.401 75.3 117.918 75.7667 117.018 76.7C116.151 77.6333 115.718 78.7 115.718 79.9C115.718 80.7 115.935 81.35 116.368 81.85C116.801 82.3167 117.335 82.6667 117.968 82.9C118.635 83.1333 119.268 83.25 119.868 83.25ZM147.329 56.05C146.496 56.05 145.779 55.7667 145.179 55.2C144.612 54.6 144.329 53.8833 144.329 53.05C144.329 52.1833 144.612 51.4667 145.179 50.9C145.779 50.3333 146.496 50.05 147.329 50.05C148.162 50.05 148.862 50.3333 149.429 50.9C150.029 51.4667 150.329 52.1833 150.329 53.05C150.329 53.8833 150.029 54.6 149.429 55.2C148.862 55.7667 148.162 56.05 147.329 56.05ZM142.979 86.9C142.412 86.9333 141.912 86.75 141.479 86.35C141.079 85.9833 140.879 85.5167 140.879 84.95C140.879 84.3833 141.079 83.9 141.479 83.5C141.912 83.1 142.412 82.9333 142.979 83C143.279 83.0333 143.596 83.0667 143.929 83.1C144.296 83.1333 144.646 83.1667 144.979 83.2H145.079C145.312 83.2 145.429 83.05 145.429 82.75V64.55C145.429 64.2833 145.312 64.15 145.079 64.15C144.346 64.15 143.646 64.2 142.979 64.3C142.412 64.3333 141.912 64.1667 141.479 63.8C141.079 63.4 140.879 62.9167 140.879 62.35C140.879 61.7833 141.079 61.3 141.479 60.9C141.912 60.5 142.412 60.3333 142.979 60.4C143.912 60.4667 144.562 60.5333 144.929 60.6C145.296 60.6333 145.546 60.65 145.679 60.65C145.846 60.65 146.029 60.65 146.229 60.65C147.062 60.65 147.762 60.95 148.329 61.55C148.929 62.1167 149.229 62.8167 149.229 63.65V82.75C149.229 83.05 149.346 83.2 149.579 83.2C149.946 83.2 150.296 83.1833 150.629 83.15C150.996 83.0833 151.346 83.0333 151.679 83C152.246 82.9333 152.729 83.1 153.129 83.5C153.529 83.9 153.729 84.3833 153.729 84.95C153.729 85.5167 153.529 85.9833 153.129 86.35C152.729 86.75 152.246 86.9333 151.679 86.9C151.012 86.8333 150.296 86.7667 149.529 86.7C148.762 86.6333 148.029 86.6 147.329 86.6C146.629 86.6 145.896 86.6333 145.129 86.7C144.362 86.7667 143.646 86.8333 142.979 86.9ZM200.815 83.4C201.282 83.4 201.682 83.5667 202.015 83.9C202.349 84.2333 202.515 84.65 202.515 85.15C202.515 85.65 202.332 86.0667 201.965 86.4C201.599 86.7667 201.165 86.9333 200.665 86.9C199.632 86.8 198.815 86.7167 198.215 86.65C197.615 86.6167 197.049 86.6 196.515 86.6C195.915 86.6 195.315 86.6167 194.715 86.65C194.149 86.7167 193.365 86.8 192.365 86.9C191.865 86.9333 191.432 86.7667 191.065 86.4C190.699 86.0667 190.515 85.65 190.515 85.15C190.515 84.65 190.682 84.2333 191.015 83.9C191.349 83.5667 191.749 83.4 192.215 83.4C192.515 83.4 192.832 83.4167 193.165 83.45C193.499 83.4833 193.832 83.5167 194.165 83.55H194.265C194.499 83.55 194.615 83.4167 194.615 83.15V70.1C194.615 68.5333 194.382 67.2667 193.915 66.3C193.482 65.3333 192.932 64.75 192.265 64.55C191.899 64.4167 191.415 64.35 190.815 64.35C189.882 64.35 188.715 64.6833 187.315 65.35C185.949 66.0167 184.299 67.35 182.365 69.35C182.199 69.5167 182.115 69.7 182.115 69.9V83.15C182.115 83.4167 182.232 83.55 182.465 83.55C182.832 83.55 183.199 83.5333 183.565 83.5C183.932 83.4333 184.282 83.4 184.615 83.4C185.082 83.4 185.482 83.5667 185.815 83.9C186.149 84.2333 186.315 84.65 186.315 85.15C186.315 85.65 186.132 86.0667 185.765 86.4C185.399 86.7667 184.949 86.9333 184.415 86.9C183.382 86.8 182.565 86.7167 181.965 86.65C181.365 86.6167 180.815 86.6 180.315 86.6C179.682 86.6 179.082 86.6167 178.515 86.65C177.949 86.7167 177.165 86.8 176.165 86.9C175.632 86.9333 175.182 86.7667 174.815 86.4C174.449 86.0667 174.265 85.65 174.265 85.15C174.265 84.65 174.432 84.2333 174.765 83.9C175.099 83.5667 175.499 83.4 175.965 83.4C176.265 83.4 176.599 83.4167 176.965 83.45C177.332 83.4833 177.682 83.5167 178.015 83.55H178.115C178.349 83.55 178.465 83.4167 178.465 83.15V70.1C178.465 66.8333 177.765 64.9667 176.365 64.5C176.199 64.4333 176.015 64.3833 175.815 64.35C175.615 64.3167 175.399 64.3 175.165 64.3C174.232 64.3 173.049 64.65 171.615 65.35C170.182 66.05 168.482 67.4167 166.515 69.45C166.349 69.6167 166.265 69.8 166.265 70V83.15C166.265 83.4167 166.382 83.55 166.615 83.55C166.982 83.55 167.332 83.5333 167.665 83.5C168.032 83.4333 168.382 83.4 168.715 83.4C169.182 83.4 169.582 83.5667 169.915 83.9C170.249 84.2333 170.415 84.65 170.415 85.15C170.415 85.65 170.232 86.0667 169.865 86.4C169.499 86.7667 169.065 86.9333 168.565 86.9C167.532 86.8 166.715 86.7167 166.115 86.65C165.515 86.6167 164.949 86.6 164.415 86.6C163.815 86.6 163.215 86.6167 162.615 86.65C162.049 86.7167 161.265 86.8 160.265 86.9C159.765 86.9333 159.332 86.7667 158.965 86.4C158.599 86.0667 158.415 85.65 158.415 85.15C158.415 84.65 158.582 84.2333 158.915 83.9C159.249 83.5667 159.649 83.4 160.115 83.4C160.382 83.4 160.699 83.4167 161.065 83.45C161.432 83.4833 161.782 83.5167 162.115 83.55H162.215C162.449 83.55 162.565 83.4167 162.565 83.15V64.25C162.565 63.9833 162.449 63.85 162.215 63.85C161.882 63.85 161.515 63.8667 161.115 63.9C160.749 63.9333 160.382 63.9833 160.015 64.05C159.482 64.1167 159.015 63.9667 158.615 63.6C158.215 63.2333 158.015 62.7833 158.015 62.25C158.015 61.7167 158.215 61.2667 158.615 60.9C159.015 60.5333 159.482 60.3833 160.015 60.45C160.782 60.5833 161.632 60.6833 162.565 60.75H164.415C164.949 60.75 165.382 60.9333 165.715 61.3C166.082 61.6333 166.265 62.0667 166.265 62.6V64.5C166.265 64.7 166.315 64.8167 166.415 64.85C166.549 64.8833 166.682 64.8333 166.815 64.7C168.382 63.2333 169.899 62.15 171.365 61.45C172.865 60.75 174.249 60.4 175.515 60.4C176.549 60.4 177.565 60.6333 178.565 61.1C179.332 61.4667 179.949 62 180.415 62.7C180.915 63.4 181.282 64.1667 181.515 65C181.615 65.4 181.815 65.45 182.115 65.15C183.782 63.4833 185.382 62.2833 186.915 61.55C188.449 60.7833 189.899 60.4 191.265 60.4C192.432 60.4 193.515 60.65 194.515 61.15C195.582 61.65 196.382 62.4333 196.915 63.5C197.482 64.5333 197.865 65.65 198.065 66.85C198.265 68.05 198.365 69.1333 198.365 70.1V83.15C198.365 83.4167 198.499 83.55 198.765 83.55C199.132 83.55 199.482 83.5333 199.815 83.5C200.149 83.4333 200.482 83.4 200.815 83.4Z" fill="#5DA146"/>
<path d="M236.072 35.4125C230.484 36.4816 217.822 37.3323 211.872 32.1823C216.018 28.987 226.373 23.6431 234.621 27.8294C242.869 32.0158 239.025 34.6291 236.072 35.4125Z" fill="#347B2D"/>
<path d="M187.374 63.0719C193.061 50.6295 205.922 27.0322 211.872 32.1823M211.872 32.1823C217.822 37.3323 230.484 36.4816 236.072 35.4125C239.025 34.6291 242.869 32.0158 234.621 27.8294C226.373 23.6431 216.018 28.987 211.872 32.1823Z" stroke="#5DA146" stroke-width="2"/>
<path d="M88.71 29.66C89.05 29.66 89.35 29.79 89.61 30.05C89.87 30.29 89.98 30.59 89.94 30.95L89.76 33.47C89.74 33.97 89.55 34.4 89.19 34.76C88.83 35.1 88.4 35.27 87.9 35.27H77.28C76.9 35.27 76.51 35.3 76.11 35.36C75.73 35.42 75.36 35.47 75 35.51C74.62 35.57 74.29 35.47 74.01 35.21C73.75 34.97 73.62 34.66 73.62 34.28C73.62 33.9 73.75 33.59 74.01 33.35C74.29 33.11 74.62 33.02 75 33.08L75.69 33.17H75.75C75.91 33.17 75.99 33.09 75.99 32.93V15.68C75.99 15.5 75.91 15.41 75.75 15.41C75.59 15.41 75.43 15.44 75.27 15.5C75.13 15.54 74.98 15.56 74.82 15.56C74.5 15.56 74.22 15.44 73.98 15.2C73.74 14.94 73.62 14.65 73.62 14.33C73.62 13.95 73.75 13.64 74.01 13.4C74.29 13.14 74.62 13.04 75 13.1C75.4 13.14 75.81 13.19 76.23 13.25C76.67 13.31 77.08 13.34 77.46 13.34H87.9C88.4 13.34 88.83 13.52 89.19 13.88C89.55 14.22 89.74 14.64 89.76 15.14L89.94 17.66C89.98 18 89.87 18.3 89.61 18.56C89.37 18.82 89.07 18.95 88.71 18.95C88.37 18.95 88.08 18.83 87.84 18.59C87.6 18.35 87.48 18.07 87.48 17.75C87.48 17.47 87.49 17.18 87.51 16.88C87.55 16.56 87.58 16.24 87.6 15.92V15.86C87.6 15.72 87.52 15.65 87.36 15.65H78.6C78.42 15.65 78.33 15.74 78.33 15.92V22.46C78.33 22.64 78.42 22.73 78.6 22.73H86.13C86.45 22.73 86.72 22.84 86.94 23.06C87.16 23.28 87.27 23.55 87.27 23.87C87.27 24.19 87.16 24.46 86.94 24.68C86.72 24.88 86.45 24.98 86.13 24.98H78.6C78.42 24.98 78.33 25.07 78.33 25.25V32.69C78.33 32.87 78.42 32.96 78.6 32.96H87.36C87.56 32.96 87.64 32.87 87.6 32.69C87.58 32.35 87.55 32.03 87.51 31.73C87.49 31.41 87.48 31.12 87.48 30.86C87.48 30.52 87.6 30.24 87.84 30.02C88.08 29.78 88.37 29.66 88.71 29.66ZM109.919 33.44C110.199 33.44 110.439 33.54 110.639 33.74C110.839 33.94 110.939 34.19 110.939 34.49C110.939 34.79 110.829 35.04 110.609 35.24C110.389 35.44 110.129 35.53 109.829 35.51C109.209 35.45 108.719 35.41 108.359 35.39C107.999 35.37 107.659 35.36 107.339 35.36C106.979 35.36 106.619 35.37 106.259 35.39C105.919 35.43 105.449 35.47 104.849 35.51C104.549 35.53 104.289 35.44 104.069 35.24C103.849 35.04 103.739 34.79 103.739 34.49C103.739 34.19 103.839 33.94 104.039 33.74C104.239 33.54 104.479 33.44 104.759 33.44C104.939 33.44 105.129 33.45 105.329 33.47C105.529 33.49 105.729 33.51 105.929 33.53H105.989C106.129 33.53 106.199 33.45 106.199 33.29V24.95C106.199 24.07 106.049 23.37 105.749 22.85C105.469 22.31 104.919 22.04 104.099 22.04C103.419 22.04 102.619 22.23 101.699 22.61C100.779 22.99 99.7091 23.74 98.4891 24.86C98.3891 24.96 98.3391 25.08 98.3391 25.22V33.29C98.3391 33.45 98.4091 33.53 98.5491 33.53C98.7691 33.53 98.9791 33.52 99.1791 33.5C99.3791 33.46 99.5791 33.44 99.7791 33.44C100.059 33.44 100.299 33.54 100.499 33.74C100.699 33.94 100.799 34.19 100.799 34.49C100.799 34.79 100.689 35.04 100.469 35.24C100.249 35.44 99.9891 35.53 99.6891 35.51C99.0691 35.45 98.5791 35.41 98.2191 35.39C97.8591 35.37 97.5191 35.36 97.1991 35.36C96.8391 35.36 96.4791 35.37 96.1191 35.39C95.7791 35.43 95.3091 35.47 94.7091 35.51C94.4091 35.53 94.1491 35.44 93.9291 35.24C93.7091 35.04 93.5991 34.79 93.5991 34.49C93.5991 34.19 93.6991 33.94 93.8991 33.74C94.0991 33.54 94.3391 33.44 94.6191 33.44C94.8191 33.44 95.0191 33.45 95.2191 33.47C95.4191 33.49 95.6191 33.51 95.8191 33.53H95.8791C96.0191 33.53 96.0891 33.45 96.0891 33.29V21.89C96.0891 21.73 96.0191 21.65 95.8791 21.65C95.6391 21.65 95.4091 21.67 95.1891 21.71C94.9891 21.73 94.7791 21.74 94.5591 21.74C94.2791 21.74 94.0391 21.64 93.8391 21.44C93.6391 21.22 93.5391 20.97 93.5391 20.69C93.5391 20.39 93.6491 20.13 93.8691 19.91C94.0891 19.69 94.3491 19.6 94.6491 19.64C94.9291 19.66 95.2291 19.69 95.5491 19.73C95.8891 19.75 96.2191 19.77 96.5391 19.79C97.0391 19.81 97.4591 20 97.7991 20.36C98.1591 20.7 98.3391 21.12 98.3391 21.62V22.34C98.3391 22.46 98.3691 22.53 98.4291 22.55C98.5091 22.57 98.5891 22.54 98.6691 22.46C99.7891 21.4 100.819 20.67 101.759 20.27C102.719 19.85 103.619 19.64 104.459 19.64C105.499 19.64 106.309 19.89 106.889 20.39C107.469 20.87 107.879 21.52 108.119 22.34C108.359 23.14 108.479 24.02 108.479 24.98V33.29C108.479 33.45 108.559 33.53 108.719 33.53C108.939 33.53 109.139 33.52 109.319 33.5C109.519 33.46 109.719 33.44 109.919 33.44ZM128.106 19.67C128.426 19.63 128.696 19.72 128.916 19.94C129.136 20.14 129.246 20.39 129.246 20.69C129.246 21.01 129.136 21.27 128.916 21.47C128.696 21.67 128.426 21.76 128.106 21.74L127.296 21.68C127.136 21.68 127.026 21.74 126.966 21.86L121.326 34.79C121.126 35.29 120.746 35.54 120.186 35.54C119.646 35.54 119.256 35.29 119.016 34.79L113.166 21.86C113.106 21.74 112.996 21.68 112.836 21.68L112.026 21.74C111.706 21.76 111.436 21.67 111.216 21.47C110.996 21.27 110.886 21.01 110.886 20.69C110.886 20.39 110.996 20.14 111.216 19.94C111.436 19.72 111.706 19.63 112.026 19.67C112.546 19.71 112.996 19.74 113.376 19.76C113.756 19.78 114.136 19.79 114.516 19.79C114.876 19.79 115.246 19.78 115.626 19.76C116.026 19.74 116.476 19.71 116.976 19.67C117.296 19.63 117.566 19.72 117.786 19.94C118.006 20.14 118.116 20.39 118.116 20.69C118.116 20.99 118.016 21.24 117.816 21.44C117.616 21.64 117.376 21.74 117.096 21.74C116.916 21.74 116.716 21.73 116.496 21.71C116.296 21.69 116.086 21.67 115.866 21.65H115.806C115.606 21.65 115.556 21.75 115.656 21.95L120.036 31.82C120.096 31.94 120.156 32 120.216 32C120.316 32 120.376 31.94 120.396 31.82L124.506 21.95C124.526 21.91 124.536 21.86 124.536 21.8C124.536 21.7 124.476 21.65 124.356 21.65C124.156 21.65 123.936 21.67 123.696 21.71C123.476 21.73 123.256 21.74 123.036 21.74C122.756 21.74 122.516 21.64 122.316 21.44C122.116 21.24 122.016 20.99 122.016 20.69C122.016 20.39 122.126 20.14 122.346 19.94C122.566 19.72 122.836 19.63 123.156 19.67C123.676 19.71 124.126 19.74 124.506 19.76C124.906 19.78 125.286 19.79 125.646 19.79C126.006 19.79 126.376 19.78 126.756 19.76C127.156 19.74 127.606 19.71 128.106 19.67Z" fill="#40A15B"/>
</svg>
