<svg width="70" height="84" viewBox="0 0 70 84" fill="none" xmlns="http://www.w3.org/2000/svg">
<rect x="31.5" y="29.6471" width="15.75" height="54.3529" rx="3" fill="#821C3B"/>
<ellipse cx="17.5" cy="16.4706" rx="17.5" ry="16.4706" fill="#2C6431"/>
<ellipse cx="52.5" cy="29.6471" rx="17.5" ry="16.4706" fill="#2C6431"/>
<path d="M42.6481 30.4706C42.6481 39.567 34.8131 46.9412 25.1481 46.9412C15.4831 46.9412 7.64813 39.567 7.64813 30.4706C7.64813 21.3741 15.4831 14 25.1481 14C34.8131 14 42.6481 21.3741 42.6481 30.4706Z" fill="#2C6431"/>
<path d="M35 16.4706C35 25.567 27.165 32.9412 17.5 32.9412C7.83502 32.9412 0 25.567 0 16.4706C0 7.37413 7.83502 0 17.5 0C27.165 0 35 7.37413 35 16.4706Z" fill="#2C6431"/>
<ellipse cx="42.0001" cy="16.4706" rx="17.5" ry="16.4706" fill="#2C6431"/>
</svg>
