<svg width="333" height="164" viewBox="0 0 333 164" fill="none" xmlns="http://www.w3.org/2000/svg">
<path d="M166 49.4499C166 76.7604 130.802 68.9415 106.5 77.798C77.1691 60.0849 47 76.7604 47 49.4499C47 22.1394 73.6391 0 106.5 0C139.361 0 166 22.1394 166 49.4499Z" fill="#E3572B"/>
<path d="M82.1972 29.5222C98.5609 52.3745 107.734 53.8935 124.099 29.5222" stroke="#0C0B0B" stroke-width="2" stroke-linecap="round"/>
<path d="M44.48 134.48C44.5333 135.013 44.48 135.52 44.32 136C44.2133 136.32 44.0533 136.587 43.84 136.8C43.68 137.013 43.4667 137.227 43.2 137.44C42.72 137.76 42.1333 138.053 41.44 138.32C41.0133 138.427 40.5867 138.507 40.16 138.56C39.7867 138.667 39.3867 138.667 38.96 138.56C38.1067 138.507 37.36 138.187 36.72 137.6C35.8133 136.853 35.0667 136.027 34.48 135.12C34.2133 134.693 33.92 134.213 33.6 133.68C33.28 133.147 32.9867 132.587 32.72 132L23.84 115.12C23.4133 115.12 22.9867 115.147 22.56 115.2C22.1333 115.2 21.7067 115.227 21.28 115.28C20.16 115.387 19.0933 115.413 18.08 115.36C17.12 115.307 16.1067 115.307 15.04 115.36H13.52V129.84C13.52 130.267 13.4933 130.667 13.44 131.04C13.44 131.413 13.44 131.813 13.44 132.24C13.44 132.507 13.4133 132.853 13.36 133.28C13.36 133.707 13.3333 134.107 13.28 134.48C13.1733 135.067 12.9333 135.68 12.56 136.32C12.1867 136.907 11.68 137.413 11.04 137.84C9.92 138.533 8.56 138.72 6.96 138.4C6.26667 138.24 5.6 137.973 4.96 137.6C4.74667 137.44 4.56 137.253 4.4 137.04C4.24 136.773 4.10667 136.507 4 136.24C3.89333 135.973 3.78667 135.707 3.68 135.44C3.62667 135.12 3.54667 134.827 3.44 134.56C3.28 134.027 3.2 133.52 3.2 133.04V87.6C3.2 87.28 3.2 86.96 3.2 86.64C3.25333 86.2667 3.30667 85.9467 3.36 85.68C3.41333 85.0933 3.6 84.5067 3.92 83.92C4.08 83.28 4.34667 82.8267 4.72 82.56C5.04 82.24 5.52 81.9733 6.16 81.76C6.85333 81.4933 7.84 81.3867 9.12 81.44C11.52 81.4933 13.8933 81.52 16.24 81.52C18.5867 81.52 20.9333 81.5733 23.28 81.68C24.8267 81.7867 26.4533 81.9733 28.16 82.24C29.92 82.4533 31.5467 82.8533 33.04 83.44C34 83.8133 34.88 84.1867 35.68 84.56C36.6933 85.1467 37.4933 85.7067 38.08 86.24C39.9467 87.9467 41.36 90 42.32 92.4C43.28 94.8 43.76 97.2267 43.76 99.68C43.76 102.56 43.0667 105.2 41.68 107.6C40.3467 110 38.1867 111.787 35.2 112.96C35.0933 113.067 34.9333 113.147 34.72 113.2C34.56 113.2 34.4267 113.227 34.32 113.28L41.68 128.08L42.4 129.36C42.5067 129.573 42.64 129.813 42.8 130.08C42.96 130.347 43.0933 130.613 43.2 130.88C43.36 131.147 43.4933 131.44 43.6 131.76C43.76 132.08 43.92 132.373 44.08 132.64C44.24 133.387 44.3733 134 44.48 134.48ZM24.48 106C25.44 106 26.3467 105.84 27.2 105.52C28.1067 105.147 28.9067 104.667 29.6 104.08C30.3467 103.493 30.96 102.827 31.44 102.08C31.92 101.28 32.1867 100.427 32.24 99.52C32.4533 96.8533 31.76 94.88 30.16 93.6C28.56 92.2667 26.4533 91.5467 23.84 91.44C22.2933 91.3333 20.5867 91.28 18.72 91.28C16.9067 91.28 15.1733 91.28 13.52 91.28C13.5733 93.4667 13.5733 95.7067 13.52 98C13.52 100.24 13.52 102.907 13.52 106H24.48ZM87.8944 131.92C88.001 132.187 88.0544 132.587 88.0544 133.12C88.0544 133.6 88.0544 134 88.0544 134.32C88.0544 134.747 87.9744 135.147 87.8144 135.52C87.6544 135.893 87.441 136.24 87.1744 136.56C86.6944 137.2 86.001 137.68 85.0944 138C83.8144 138.427 82.6144 138.64 81.4944 138.64C80.9077 138.693 80.2944 138.72 79.6544 138.72C79.0144 138.72 78.3744 138.773 77.7344 138.88H77.4144C73.3077 138.933 69.0677 138.933 64.6944 138.88C63.6277 138.827 62.4277 138.827 61.0944 138.88C59.761 138.987 58.4544 138.96 57.1744 138.8C55.8944 138.693 54.721 138.4 53.6544 137.92C52.641 137.387 51.921 136.56 51.4944 135.44C51.3877 135.173 51.3077 134.933 51.2544 134.72C51.201 134.453 51.1744 134.187 51.1744 133.92C50.961 132.107 50.881 130.32 50.9344 128.56C50.9877 126.8 51.0144 125.067 51.0144 123.36L51.1744 111.76V101.04C51.1744 99.12 51.1744 97.4133 51.1744 95.92C51.2277 94.4267 51.281 92.7733 51.3344 90.96V90.56C51.3877 90.0267 51.4144 89.4933 51.4144 88.96C51.4677 88.4267 51.4944 87.8933 51.4944 87.36C51.601 86.1333 51.8944 85.0933 52.3744 84.24C52.6944 83.44 53.2544 82.8 54.0544 82.32C54.7477 81.84 55.5744 81.6 56.5344 81.6C56.9077 81.6 57.2544 81.6267 57.5744 81.68C57.9477 81.68 58.2944 81.7067 58.6144 81.76C58.9344 81.8133 59.2277 81.92 59.4944 82.08C59.8144 82.24 60.1344 82.4533 60.4544 82.72C60.7744 83.0933 61.0677 83.5467 61.3344 84.08C61.5477 84.6667 61.681 85.2533 61.7344 85.84C61.7877 86.2133 61.841 86.56 61.8944 86.88C61.9477 87.2 61.9744 87.52 61.9744 87.84C61.8677 88.16 61.8144 88.48 61.8144 88.8C61.8144 89.12 61.8144 89.4133 61.8144 89.68V91.12L61.4944 128.8L77.3344 128.96H81.0944C81.4144 128.96 81.761 128.987 82.1344 129.04C82.5077 129.04 82.881 129.067 83.2544 129.12C83.681 129.173 84.0544 129.227 84.3744 129.28C84.6944 129.333 85.0144 129.413 85.3344 129.52C85.921 129.68 86.401 129.947 86.7744 130.32C87.361 130.853 87.7344 131.387 87.8944 131.92ZM119.89 100.64C120.797 100.427 121.703 100.48 122.61 100.8C123.57 101.12 124.45 101.653 125.25 102.4C125.623 102.773 125.89 103.227 126.05 103.76C126.263 104.293 126.37 104.853 126.37 105.44C126.37 106.08 126.263 106.773 126.05 107.52C125.89 108.213 125.65 108.747 125.33 109.12C124.903 109.6 124.343 109.973 123.65 110.24C122.957 110.507 122.29 110.693 121.65 110.8C121.01 110.853 120.45 110.88 119.97 110.88C119.543 110.88 119.303 110.88 119.25 110.88L103.57 110.96C102.93 111.013 102.263 111.067 101.57 111.12C100.93 111.12 100.29 111.093 99.65 111.04C99.01 110.933 98.3967 110.773 97.81 110.56C97.2767 110.293 96.77 109.947 96.29 109.52C95.7033 108.933 95.25 108.373 94.93 107.84C94.61 107.253 94.45 106.587 94.45 105.84C94.45 104.933 94.69 104.053 95.17 103.2C95.7033 102.293 96.4233 101.68 97.33 101.36C98.45 100.88 99.5967 100.667 100.77 100.72C101.997 100.72 103.223 100.693 104.45 100.64H119.89ZM169.301 131.92C169.407 132.187 169.461 132.587 169.461 133.12C169.461 133.6 169.461 134 169.461 134.32C169.461 134.747 169.381 135.147 169.221 135.52C169.061 135.893 168.847 136.24 168.581 136.56C168.101 137.2 167.407 137.68 166.501 138C165.221 138.427 164.021 138.64 162.901 138.64C162.314 138.693 161.701 138.72 161.061 138.72C160.421 138.72 159.781 138.773 159.141 138.88H158.821C154.714 138.933 150.474 138.933 146.101 138.88C145.034 138.827 143.834 138.827 142.501 138.88C141.167 138.987 139.861 138.96 138.581 138.8C137.301 138.693 136.127 138.4 135.061 137.92C134.047 137.387 133.327 136.56 132.901 135.44C132.794 135.173 132.714 134.933 132.661 134.72C132.607 134.453 132.581 134.187 132.581 133.92C132.367 132.107 132.287 130.32 132.341 128.56C132.394 126.8 132.421 125.067 132.421 123.36L132.581 111.76V101.04C132.581 99.12 132.581 97.4133 132.581 95.92C132.634 94.4267 132.687 92.7733 132.741 90.96V90.56C132.794 90.0267 132.821 89.4933 132.821 88.96C132.874 88.4267 132.901 87.8933 132.901 87.36C133.007 86.1333 133.301 85.0933 133.781 84.24C134.101 83.44 134.661 82.8 135.461 82.32C136.154 81.84 136.981 81.6 137.941 81.6C138.314 81.6 138.661 81.6267 138.981 81.68C139.354 81.68 139.701 81.7067 140.021 81.76C140.341 81.8133 140.634 81.92 140.901 82.08C141.221 82.24 141.541 82.4533 141.861 82.72C142.181 83.0933 142.474 83.5467 142.741 84.08C142.954 84.6667 143.087 85.2533 143.141 85.84C143.194 86.2133 143.247 86.56 143.301 86.88C143.354 87.2 143.381 87.52 143.381 87.84C143.274 88.16 143.221 88.48 143.221 88.8C143.221 89.12 143.221 89.4133 143.221 89.68V91.12L142.901 128.8L158.741 128.96H162.501C162.821 128.96 163.167 128.987 163.541 129.04C163.914 129.04 164.287 129.067 164.661 129.12C165.087 129.173 165.461 129.227 165.781 129.28C166.101 129.333 166.421 129.413 166.741 129.52C167.327 129.68 167.807 129.947 168.181 130.32C168.767 130.853 169.141 131.387 169.301 131.92ZM199.239 127.04C199.879 126.88 200.519 126.773 201.159 126.72C201.853 126.667 202.466 126.747 202.999 126.96C203.586 127.173 204.066 127.547 204.439 128.08C204.813 128.56 204.999 129.253 204.999 130.16C204.999 130.8 204.839 131.413 204.519 132C204.199 132.587 203.799 133.12 203.319 133.6C202.839 134.08 202.306 134.507 201.719 134.88C201.133 135.2 200.573 135.467 200.039 135.68C198.493 136.373 196.706 136.907 194.679 137.28C192.706 137.653 190.653 137.787 188.519 137.68C185.639 137.573 182.866 137.013 180.199 136C177.586 134.933 175.533 133.2 174.039 130.8C172.653 128.453 171.826 125.84 171.559 122.96C171.293 120.08 171.426 117.36 171.959 114.8C172.546 111.707 173.533 109.2 174.919 107.28C176.359 105.307 178.066 103.733 180.039 102.56C182.439 101.173 185.133 100.453 188.119 100.4C191.106 100.347 193.959 100.933 196.679 102.16C198.493 102.96 200.119 104.053 201.559 105.44C202.999 106.773 204.093 108.4 204.839 110.32C205.053 110.8 205.213 111.387 205.319 112.08C205.479 112.773 205.586 113.52 205.639 114.32C205.693 115.067 205.693 115.813 205.639 116.56C205.586 117.307 205.453 117.973 205.239 118.56C204.919 119.52 204.519 120.267 204.039 120.8C203.559 121.333 202.946 121.733 202.199 122C201.453 122.267 200.546 122.453 199.479 122.56C198.466 122.613 197.239 122.667 195.799 122.72C194.519 122.773 193.319 122.8 192.199 122.8C191.079 122.8 189.933 122.8 188.759 122.8C187.586 122.747 186.359 122.72 185.079 122.72C183.853 122.667 182.466 122.613 180.919 122.56C180.759 123.627 180.893 124.56 181.319 125.36C181.799 126.107 182.439 126.747 183.239 127.28C184.039 127.76 184.946 128.133 185.959 128.4C186.973 128.667 187.959 128.827 188.919 128.88C190.733 128.987 192.466 128.853 194.119 128.48C195.773 128.053 197.479 127.573 199.239 127.04ZM195.799 111.52C194.786 110.347 193.719 109.493 192.599 108.96C191.746 108.587 190.839 108.427 189.879 108.48C188.973 108.48 188.093 108.613 187.239 108.88C185.693 109.253 184.386 110.053 183.319 111.28C183.213 111.387 183.026 111.653 182.759 112.08C182.493 112.453 182.226 112.853 181.959 113.28C181.746 113.707 181.586 114.107 181.479 114.48C181.373 114.853 181.426 115.04 181.639 115.04H197.319C197.266 114.293 197.133 113.68 196.919 113.2C196.706 112.667 196.333 112.107 195.799 111.52ZM220.685 104.32C222.285 103.52 223.965 102.96 225.725 102.64C227.485 102.267 229.218 102.187 230.925 102.4C232.685 102.56 234.365 103.013 235.965 103.76C237.565 104.453 239.058 105.467 240.445 106.8C241.832 108.187 242.898 109.707 243.645 111.36C244.392 113.013 244.925 114.853 245.245 116.88C245.458 118.267 245.805 119.547 246.285 120.72C246.765 121.893 247.272 123.067 247.805 124.24C248.392 125.413 248.925 126.587 249.405 127.76C249.938 128.933 250.365 130.16 250.685 131.44C250.952 132.667 250.845 133.867 250.365 135.04C249.938 136.16 249.032 136.853 247.645 137.12C246.845 137.28 246.072 137.227 245.325 136.96C244.632 136.64 243.992 136.213 243.405 135.68C242.818 135.093 242.285 134.48 241.805 133.84C241.378 133.147 240.978 132.507 240.605 131.92C239.378 133.52 238.045 134.773 236.605 135.68C235.165 136.533 233.432 137.093 231.405 137.36C229.698 137.573 228.072 137.627 226.525 137.52C224.978 137.413 223.325 137.12 221.565 136.64C219.272 136.053 217.378 135.04 215.885 133.6C214.445 132.107 213.325 130.4 212.525 128.48C211.778 126.507 211.378 124.4 211.325 122.16C211.272 119.92 211.538 117.707 212.125 115.52C212.872 112.64 213.992 110.293 215.485 108.48C216.978 106.667 218.712 105.28 220.685 104.32ZM222.685 113.68C221.938 114.427 221.352 115.307 220.925 116.32C220.498 117.333 220.232 118.4 220.125 119.52C220.072 120.64 220.178 121.76 220.445 122.88C220.712 124 221.138 124.987 221.725 125.84C222.258 126.587 223.165 127.227 224.445 127.76C225.725 128.24 227.058 128.533 228.445 128.64C230.045 128.747 231.432 128.32 232.605 127.36C233.832 126.4 234.738 125.2 235.325 123.76C235.965 122.267 236.258 120.693 236.205 119.04C236.152 117.333 235.698 115.787 234.845 114.4C234.205 113.387 233.352 112.64 232.285 112.16C231.272 111.68 230.178 111.44 229.005 111.44C227.832 111.387 226.658 111.573 225.485 112C224.365 112.373 223.432 112.933 222.685 113.68ZM257.421 109.68C257.421 109.04 257.421 108.32 257.421 107.52C257.421 106.667 257.447 105.813 257.501 104.96C257.554 104.053 257.634 103.2 257.741 102.4C257.901 101.547 258.114 100.8 258.381 100.16C258.807 99.2 259.474 98.56 260.381 98.24C261.287 97.8667 262.274 97.7067 263.341 97.76C264.461 97.76 265.341 97.9467 265.981 98.32C266.621 98.6933 267.101 99.2 267.421 99.84C267.741 100.427 267.927 101.12 267.981 101.92C268.087 102.667 268.141 103.467 268.141 104.32C268.621 103.467 269.261 102.773 270.061 102.24C270.914 101.707 271.767 101.28 272.621 100.96C273.474 100.64 274.247 100.427 274.941 100.32C275.634 100.16 276.034 100.08 276.141 100.08C277.474 99.9733 278.674 99.9467 279.741 100C280.861 100.053 282.087 100.293 283.421 100.72C284.274 101.04 285.154 101.493 286.061 102.08C286.967 102.613 287.767 103.253 288.461 104C289.154 104.747 289.607 105.573 289.821 106.48C290.087 107.333 289.981 108.24 289.501 109.2C288.754 110.533 287.927 111.2 287.021 111.2C286.114 111.147 285.127 110.987 284.061 110.72C283.474 110.613 282.781 110.373 281.981 110C281.181 109.627 280.487 109.387 279.901 109.28C278.087 109.013 276.487 109.147 275.101 109.68C273.714 110.213 272.514 110.853 271.501 111.6C270.327 112.507 269.314 113.547 268.461 114.72V126.24C268.461 127.68 268.434 129.173 268.381 130.72C268.381 132.267 268.167 133.68 267.741 134.96C267.367 136.187 266.701 137.2 265.741 138C264.834 138.747 263.501 139.067 261.741 138.96C260.781 138.907 259.927 138.453 259.181 137.6C258.434 136.693 257.981 135.813 257.821 134.96C257.714 134.16 257.634 133.2 257.581 132.08C257.527 130.96 257.474 129.787 257.421 128.56C257.421 127.333 257.421 126.107 257.421 124.88C257.421 123.6 257.421 122.427 257.421 121.36V109.68ZM296.483 109.44C296.483 108.213 296.456 106.907 296.403 105.52C296.403 104.133 296.643 102.88 297.123 101.76C297.55 100.747 298.243 100.027 299.203 99.6C300.216 99.12 301.203 99.0133 302.163 99.28C303.123 99.44 303.87 99.7333 304.403 100.16C304.936 100.587 305.31 101.093 305.523 101.68C305.79 102.213 305.95 102.853 306.003 103.6C306.056 104.293 306.11 104.987 306.163 105.68C306.696 104.72 307.363 103.947 308.163 103.36C308.963 102.773 309.79 102.293 310.643 101.92C311.496 101.547 312.296 101.28 313.043 101.12C313.843 100.96 314.456 100.88 314.883 100.88C316.91 100.88 318.91 101.333 320.883 102.24C322.91 103.093 324.59 104.32 325.923 105.92C326.67 106.88 327.23 107.893 327.603 108.96C328.03 109.973 328.323 111.04 328.483 112.16C328.696 113.28 328.83 114.427 328.883 115.6C328.936 116.72 328.99 117.867 329.043 119.04C329.31 122.453 329.31 125.84 329.043 129.2C328.99 129.893 328.963 130.693 328.963 131.6C328.963 132.507 328.883 133.413 328.723 134.32C328.616 135.173 328.376 135.947 328.003 136.64C327.683 137.28 327.123 137.68 326.323 137.84C325.203 138.107 324.27 138.16 323.523 138C322.83 137.893 322.27 137.653 321.843 137.28C321.416 136.907 321.096 136.427 320.883 135.84C320.67 135.253 320.483 134.587 320.323 133.84C320.216 133.253 320.11 132.587 320.003 131.84C319.95 131.04 319.896 130.24 319.843 129.44C319.843 128.64 319.816 127.867 319.763 127.12C319.763 126.32 319.763 125.6 319.763 124.96C319.763 123.947 319.736 122.827 319.683 121.6C319.63 120.373 319.63 119.227 319.683 118.16C319.683 115.653 319.016 113.76 317.683 112.48C316.403 111.147 314.643 110.587 312.403 110.8C310.696 111.013 309.203 111.707 307.923 112.88C306.643 114 306.03 115.467 306.083 117.28C306.083 117.973 306.083 118.613 306.083 119.2C306.083 119.787 306.056 120.373 306.003 120.96C306.003 121.547 306.003 122.187 306.003 122.88C306.003 123.573 306.003 124.347 306.003 125.2C306.003 126.96 306.003 128.827 306.003 130.8C306.003 132.72 305.763 134.293 305.283 135.52C304.856 136.8 304.136 137.68 303.123 138.16C302.11 138.64 300.91 138.507 299.523 137.76C298.936 137.44 298.456 137.013 298.083 136.48C297.763 135.893 297.496 135.28 297.283 134.64C297.123 134 297.016 133.36 296.963 132.72C296.91 132.027 296.856 131.387 296.803 130.8C296.643 129.04 296.536 127.413 296.483 125.92C296.483 124.373 296.483 122.72 296.483 120.96V109.44Z" fill="#1278D7"/>
</svg>
